<svg version="1.2" xmlns="http://www.w3.org/2000/svg" viewBox="0 0 512 512" width="512" height="512">
	<title>새 프로젝트</title>
	<defs>
		<linearGradient id="g1" x2="1" gradientUnits="userSpaceOnUse" gradientTransform="matrix(0,-480,480,0,256,496)">
			<stop offset="0" stop-color="#cedfff"/>
			<stop offset="1" stop-color="#e1ecff"/>
		</linearGradient>
	</defs>
	<style>
		.s0 { fill: #000000 } 
		.s1 { fill: url(#g1) } 
		.s2 { fill: #82b1ff } 
	</style>
	<path id="Background" class="s0" d=""/>
	<path id="모양 2" class="s1" d="m48 16h416c17.7 0 32 14.3 32 32v416c0 17.7-14.3 32-32 32h-416c-17.7 0-32-14.3-32-32v-416c0-17.7 14.3-32 32-32z"/>
	<path id="레이어 1" fill-rule="evenodd" class="s2" d="m360.6 268v-93.8c0-2.5-1.1-4.9-2.8-6.7l20.1-20.1c7.1 7.1 11.1 16.8 11.1 26.9v93.7m-266 97.5v-235.5c0-21 17-38 38-38h145.8c10.1 0 19.8 4 26.9 11.1l44.3 44.2-20.2 20.2-44.3-44.2c-0.2-0.2-0.3-0.3-0.5-0.5v59.5c0 7.8-6.3 14.2-14.2 14.2h-114c-7.9 0-14.3-6.4-14.3-14.2v-61.8h-9.5c-5.2 0-9.5 4.3-9.5 9.5v235.5m47.5-245v47.5h85.5v-47.5zm19 144.5c0-10.1 4-19.7 11.2-26.9 7.1-7.1 16.8-11.1 26.8-11.1 10.1 0 19.8 4 26.9 11.1 7.2 7.2 11.2 16.8 11.2 26.9 0 10.1-76.1 10.1-76.1 0z"/>
	<path id="모양 3" fill-rule="evenodd" class="s2" d="m400.3 264c13.3 0 24.2 10.9 24.2 24.2v24.3c0 13.4-10.9 24.3-24.3 24.3h-287.9c-13.4 0-24.3-10.9-24.3-24.3v-24.3c0-13.3 10.9-24.2 24.2-24.2zm-50.8 29.9c-1.7 1.8-2.7 4.1-2.7 6.5 0 2.4 1 4.7 2.7 6.4 1.7 1.7 4 2.7 6.4 2.7 2.5 0 4.8-1 6.5-2.7 1.7-1.7 2.6-4 2.6-6.4 0-2.4-0.9-4.7-2.6-6.5-1.7-1.7-4-2.6-6.5-2.6-2.4 0-4.7 0.9-6.4 2.6zm27.3 12.9c1.7 1.7 4 2.7 6.4 2.7 2.4 0 4.7-1 6.5-2.7 1.7-1.7 2.6-4 2.6-6.4 0-2.4-0.9-4.7-2.6-6.5-1.8-1.7-4.1-2.6-6.5-2.6-2.4 0-4.7 0.9-6.4 2.6-1.7 1.8-2.7 4.1-2.7 6.5 0 2.4 1 4.7 2.7 6.4zm23.5 54.2c13.4 0 24.3 10.9 24.3 24.3v24.2c0 13.4-10.9 24.3-24.3 24.3l-288-0.1c-13.3 0-24.2-10.8-24.2-24.2v-24.2c0-13.4 10.9-24.3 24.2-24.3zm-50.8 29.9c-1.7 1.8-2.7 4.1-2.7 6.5 0 2.4 1 4.7 2.7 6.4 1.7 1.7 4 2.7 6.4 2.7 2.5 0 4.8-1 6.5-2.7 1.7-1.7 2.6-4 2.6-6.4 0-2.4-0.9-4.7-2.6-6.5-1.7-1.7-4-2.6-6.5-2.6-2.4 0-4.7 0.9-6.4 2.6zm30.3 12.9c1.7 1.7 4 2.7 6.5 2.7 2.4 0 4.7-1 6.4-2.7 1.7-1.7 2.6-4 2.6-6.4 0-2.4-0.9-4.7-2.6-6.5-1.7-1.7-4-2.6-6.4-2.6-2.5 0-4.8 0.9-6.5 2.6-1.7 1.8-2.6 4.1-2.6 6.5 0 2.4 0.9 4.7 2.6 6.4z"/>
</svg>